<svg xmlns="http://www.w3.org/2000/svg" width="48" height="48" viewBox="0 0 48 48" fill="none" role="img" aria-label="Humexa">
  <defs>
    <linearGradient id="fig" x1="16" y1="15" x2="32" y2="34" gradientUnits="userSpaceOnUse">
      <stop offset="0" stop-color="#34E0A8"></stop>
      <stop offset="1" stop-color="#2D6BFF"></stop>
    </linearGradient>
  </defs>
  
  <g stroke="#5B8DEF" stroke-width="1" opacity="0.45" stroke-linecap="round">
    <line x1="24" y1="5" x2="33" y2="7"></line>
    <line x1="33" y1="7" x2="40" y2="13"></line>
    <line x1="40" y1="13" x2="43" y2="22"></line>
    <line x1="24" y1="5" x2="15" y2="7"></line>
    <line x1="15" y1="7" x2="8" y2="13"></line>
    <line x1="8" y1="13" x2="5" y2="22"></line>
    <line x1="24" y1="5" x2="24" y2="11"></line>
    <line x1="33" y1="7" x2="24" y2="11"></line>
    <line x1="15" y1="7" x2="24" y2="11"></line>
    <line x1="24" y1="11" x2="43" y2="22"></line>
    <line x1="24" y1="11" x2="5" y2="22"></line>
  </g>
  
  <g stroke="#34E0A8" stroke-width="1.1" opacity="0.72" stroke-linecap="round">
    <line x1="24" y1="22" x2="24" y2="11"></line>
  </g>
  
  <circle cx="24" cy="5" r="2.3" fill="#34E0A8"></circle>
  <circle cx="33" cy="7" r="1.6" fill="#5B8DEF"></circle>
  <circle cx="40" cy="13" r="2" fill="#5B8DEF"></circle>
  <circle cx="43" cy="22" r="1.5" fill="#5B8DEF"></circle>
  <circle cx="15" cy="7" r="1.6" fill="#5B8DEF"></circle>
  <circle cx="8" cy="13" r="2" fill="#5B8DEF"></circle>
  <circle cx="5" cy="22" r="1.5" fill="#5B8DEF"></circle>
  <circle cx="24" cy="11" r="1.5" fill="#34E0A8"></circle>
  
  <circle cx="24" cy="18.5" r="3.7" fill="url(#fig)"></circle>
  <path d="M24 23.5 C 19 23.5, 16 27.4, 16 32.5 L 32 32.5 C 32 27.4, 29 23.5, 24 23.5 Z" fill="url(#fig)"></path>
</svg>